<svg width="48" height="48" viewBox="0 0 48 48" fill="none" xmlns="http://www.w3.org/2000/svg">
<g clip-path="url(#clip0_229_1153)">
<path d="M17.1632 42.2328C16.8869 42.0168 16.5796 41.8434 16.2517 41.7184C15.9449 41.6106 15.6233 41.5501 15.2982 41.539C14.5938 41.5311 13.8916 41.6196 13.2113 41.8022C12.5157 41.9756 11.85 42.1787 11.3583 42.3464C10.8665 42.5137 10.5427 42.6394 10.5427 42.6394C10.5427 42.6394 10.8605 42.8188 11.3643 43.0341C11.995 43.3071 12.6549 43.5077 13.3312 43.632C14.0956 43.7817 14.8835 43.7634 15.64 43.5783C15.9887 43.5037 16.3121 43.3408 16.579 43.1051C16.8459 42.8694 17.0471 42.5688 17.1632 42.2328Z" fill="#B18151"/>
<path d="M15.0401 39.159C15.2988 39.7801 15.7115 40.3253 16.2394 40.7437C16.4896 40.9379 16.7808 41.0729 17.091 41.1385C17.4107 41.2037 17.7426 41.1725 18.0445 41.0486C18.0653 40.4149 17.8939 39.7898 17.5527 39.255C17.2269 38.7582 16.8218 38.3176 16.3534 37.9515C15.9464 37.6248 15.5198 37.3232 15.076 37.0484C14.7222 36.8271 14.4763 36.7017 14.4763 36.7017C14.4763 36.7017 14.4763 36.7794 14.4763 36.917C14.4763 37.0545 14.5123 37.2397 14.5543 37.479C14.6469 38.0568 14.81 38.621 15.0401 39.159Z" fill="#B18151"/>
<path d="M10.0386 40.7738C10.3774 40.7699 10.7109 40.6886 11.0134 40.5363C11.3159 40.3837 11.5794 40.1645 11.7837 39.8948C11.6241 39.6132 11.409 39.3668 11.1514 39.1705C10.8937 38.9742 10.5988 38.832 10.2844 38.7525C9.60578 38.5716 8.90605 38.4809 8.2035 38.4834C7.48987 38.4834 6.77625 38.4834 6.24255 38.4834H5.349C5.349 38.4834 5.41498 38.5612 5.53491 38.6808C5.65484 38.8005 5.84075 38.962 6.06864 39.1472C6.61706 39.5978 7.22179 39.9757 7.86768 40.2713C8.54258 40.604 9.28568 40.776 10.0386 40.7738Z" fill="#B18151"/>
<path d="M11.3941 38.041C11.5801 38.2961 11.8262 38.5017 12.1107 38.6393C12.3952 38.7772 12.7093 38.8427 13.0253 38.8305C13.2748 38.2298 13.2898 37.5578 13.0673 36.9471C12.8543 36.3858 12.5548 35.8613 12.1797 35.3924C11.8379 34.9261 11.4901 34.5252 11.2382 34.2444C11.1123 34.0947 11.0043 33.9811 10.9324 33.9034L10.8185 33.7837C10.8185 33.7837 10.8185 33.8557 10.7585 33.9811C10.7133 34.1606 10.6772 34.3422 10.6505 34.5252C10.5622 35.098 10.5622 35.6808 10.6505 36.2532C10.7445 36.9019 11.0002 37.5166 11.3941 38.041Z" fill="#B18151"/>
<path d="M2.84239 33.0603C2.35064 32.9048 2.02682 32.8151 2.02682 32.8151C2.02682 32.8151 2.0568 32.8988 2.12279 33.0363C2.18873 33.1739 2.29068 33.3593 2.41662 33.5865C2.54253 33.8138 2.69846 34.0767 2.87839 34.3518C2.96834 34.4894 3.06427 34.627 3.16621 34.7702L3.24419 34.8781L3.34614 35.0095L3.55602 35.2728C4.07406 35.9237 4.76332 36.4187 5.54698 36.7017C5.87151 36.821 6.22077 36.8579 6.56315 36.8088C6.90556 36.7597 7.23027 36.6265 7.50796 36.4209C7.34784 35.7818 6.96258 35.2216 6.42251 34.8422C6.2966 34.7405 6.15267 34.6449 6.00874 34.5431L5.553 34.2562L5.06723 33.975C4.91732 33.8916 4.76139 33.8138 4.60546 33.7418C4.03376 33.4756 3.44476 33.2478 2.84239 33.0603Z" fill="#B18151"/>
<path d="M7.67622 34.292C7.75768 34.5943 7.91923 34.8694 8.14397 35.0883C8.36871 35.3072 8.64833 35.4616 8.95356 35.5357C9.34934 35.0349 9.57415 34.421 9.59521 33.7837C9.61105 33.2532 9.5749 32.7225 9.48725 32.1991C9.45114 31.9342 9.39501 31.6723 9.31936 31.4158C9.24138 31.1527 9.16343 30.9135 9.08548 30.7162C9.0075 30.5189 8.94156 30.3515 8.89359 30.2378L8.82761 30.0585L8.70166 30.2378C8.62372 30.3574 8.52775 30.5249 8.41982 30.7341C8.14114 31.266 7.91808 31.825 7.75416 32.4024C7.71218 32.5639 7.6702 32.7313 7.63423 32.8987C7.60303 33.0568 7.58101 33.2165 7.56825 33.3771C7.55328 33.5362 7.55328 33.6963 7.56825 33.8554C7.59043 34.004 7.62657 34.1502 7.67622 34.292Z" fill="#B18151"/>
<path d="M2.08674 30.6084C2.20406 30.7443 2.33244 30.8703 2.47057 30.9851C2.60042 31.0972 2.73876 31.1992 2.88433 31.2901C3.15629 31.4881 3.46965 31.6222 3.80095 31.6822C4.13226 31.7423 4.47288 31.7268 4.79735 31.6369C4.85413 31.3178 4.83356 30.9897 4.73738 30.6802C4.69293 30.5336 4.6305 30.393 4.55147 30.2616C4.47328 30.1252 4.38716 29.9934 4.2936 29.867C3.86378 29.3284 3.34452 28.8672 2.75839 28.5036C2.24228 28.1404 1.70568 27.807 1.15125 27.505L0.395639 27.0984C0.395639 27.0984 0.395639 27.1881 0.443603 27.3376C0.491603 27.4871 0.54555 27.6964 0.635496 27.9356C0.828105 28.5653 1.10013 29.1681 1.44508 29.7294C1.6368 30.0379 1.85129 30.3317 2.08674 30.6084Z" fill="#B18151"/>
<path d="M5.84086 30.3574C5.97544 30.6408 6.18223 30.8841 6.44054 31.063C7.01683 30.741 7.44639 30.2098 7.63989 29.5801C7.68771 29.4332 7.72579 29.2834 7.75384 29.1316L7.78984 28.9044C7.78984 28.8326 7.78984 28.7549 7.8258 28.6772C7.86155 28.3716 7.87359 28.0637 7.8618 27.7563C7.84174 27.2357 7.79167 26.7166 7.71186 26.2017C7.67589 25.9983 7.63989 25.8309 7.61593 25.7173C7.59193 25.6037 7.57993 25.5379 7.57993 25.5379L7.43002 25.6874C7.29644 25.8199 7.17032 25.9596 7.05222 26.106C6.68018 26.5604 6.35847 27.0536 6.09272 27.5769C5.79988 28.1669 5.64216 28.8143 5.63095 29.4724C5.63242 29.6277 5.65255 29.7823 5.69091 29.9328C5.7248 30.0795 5.77509 30.2219 5.84086 30.3574Z" fill="#B18151"/>
<path d="M0.875534 24.928C0.959498 25.0867 1.05575 25.2386 1.16339 25.3824C1.27189 25.5221 1.3901 25.654 1.51719 25.7771C1.74674 26.0181 2.02739 26.205 2.33868 26.324C2.64996 26.4429 2.98395 26.491 3.31626 26.4647C3.43526 26.1649 3.47853 25.8404 3.44221 25.52C3.42383 25.3674 3.3897 25.2171 3.34026 25.0715C3.30183 24.9204 3.25168 24.7724 3.19032 24.629C3.04589 24.3264 2.86678 24.0415 2.65662 23.78L2.33276 23.3734C2.22484 23.2358 2.10491 23.1043 1.99096 22.9727C1.5172 22.4585 1.00148 21.9801 0.635678 21.6273C0.269874 21.2745 0 21.0413 0 21.0413C0 21.0413 0 21.4001 0 21.9383C0.0279761 22.2473 0.0719998 22.5546 0.131928 22.8591C0.167928 23.0265 0.203892 23.1999 0.245875 23.3734C0.284704 23.5517 0.334782 23.7274 0.395785 23.8995C0.531726 24.253 0.692024 24.5966 0.875534 24.928Z" fill="#B18151"/>
<path d="M5.04342 26.0761C5.65767 25.8707 6.17299 25.4443 6.48868 24.8802C6.56541 24.7501 6.63157 24.6141 6.68656 24.4736C6.75519 24.3359 6.81526 24.1941 6.86649 24.049C6.96087 23.7701 7.03305 23.4842 7.08238 23.194C7.13633 22.9129 7.19629 22.6379 7.22627 22.3867C7.22627 22.2552 7.22627 22.1356 7.26227 22.022C7.29824 21.9083 7.26227 21.8007 7.26227 21.6991C7.2953 21.4812 7.31532 21.2616 7.32224 21.0413C7.32224 21.0413 7.05838 21.1908 6.68058 21.4599L6.37474 21.6871C6.26681 21.7768 6.15884 21.8665 6.05092 21.9682C5.81672 22.1771 5.59825 22.403 5.39726 22.6439C5.29531 22.7694 5.19336 22.9009 5.0974 23.0385L4.96547 23.2478L4.85152 23.469C4.70867 23.7552 4.60382 24.0587 4.5397 24.3719C4.50628 24.5231 4.4902 24.6776 4.4917 24.8323C4.50059 24.9819 4.52469 25.1301 4.56367 25.2748C4.64989 25.5794 4.81542 25.8558 5.04342 26.0761Z" fill="#B18151"/>
<path d="M2.54896 17.4536C2.38705 17.1427 2.21314 16.8557 2.04525 16.5627L1.58348 15.8153C1.3136 15.3788 1.11573 15.0977 1.11573 15.0977C1.11573 15.0977 1.01378 15.4386 0.905819 15.9648C0.869855 16.2338 0.827872 16.5627 0.803872 16.8916C0.803872 17.059 0.803872 17.2384 0.803872 17.4178C0.803872 17.5971 0.803872 17.7825 0.803872 17.9679C0.833102 18.339 0.893281 18.707 0.9838 19.0681C1.07815 19.4145 1.21936 19.7464 1.40359 20.0547C1.56915 20.3428 1.79926 20.5887 2.07602 20.7734C2.35273 20.958 2.66853 21.0764 2.99873 21.1191C3.08853 20.983 3.16107 20.8364 3.21462 20.6826C3.27129 20.538 3.31151 20.3876 3.33455 20.2341C3.38058 19.9274 3.36632 19.6146 3.2926 19.3133C3.22393 18.99 3.12557 18.6738 2.99873 18.3685C2.8668 18.0516 2.70489 17.7287 2.54896 17.4536Z" fill="#B18151"/>
<path d="M6.42886 20.1564C6.64106 19.949 6.8264 19.716 6.98057 19.4628C7.149 19.2253 7.29554 18.9731 7.41834 18.7093C7.48432 18.5838 7.53229 18.4582 7.59225 18.3386L7.74818 17.9799C7.84414 17.7466 7.91611 17.5314 7.98205 17.346C8.12 16.9813 8.18595 16.7481 8.18595 16.7481C7.93606 16.8126 7.68983 16.8904 7.44832 16.9813C6.90846 17.1836 6.39819 17.4571 5.93113 17.7945C5.79468 17.8876 5.66447 17.9894 5.54132 18.0994C5.42143 18.209 5.30734 18.3248 5.19952 18.4462C4.98431 18.6867 4.80459 18.9565 4.66579 19.2475C4.54299 19.5222 4.47966 19.8197 4.47988 20.1205C4.47579 20.2702 4.49603 20.4197 4.53984 20.563C4.58917 20.7164 4.65769 20.8631 4.74373 20.9995C5.38719 20.924 5.9836 20.6256 6.42886 20.1564Z" fill="#B18151"/>
<path d="M4.32356 15.5283C4.4172 15.4066 4.49575 15.2741 4.55747 15.1337C4.61669 14.9953 4.66093 14.8509 4.6894 14.7031C4.6894 14.5537 4.73135 14.3982 4.74937 14.2427C4.76874 13.9168 4.75062 13.5898 4.69538 13.268C4.64971 12.9236 4.58362 12.5822 4.49747 12.2456C4.32356 11.5639 4.13769 10.9241 3.96378 10.4517C3.78987 9.97932 3.6819 9.62054 3.6819 9.62054C3.6819 9.62054 3.63394 9.69831 3.56198 9.82984C3.49001 9.96138 3.39405 10.1647 3.28014 10.4278C3.00858 11.0286 2.80737 11.6586 2.68042 12.3054C2.62089 12.6633 2.58682 13.0249 2.57848 13.3876C2.58055 13.5678 2.59456 13.7475 2.62046 13.9258C2.64858 14.0973 2.68662 14.267 2.7344 14.434C2.82152 14.7526 2.97706 15.0484 3.19015 15.3011C3.40816 15.5647 3.68842 15.7701 4.00576 15.899C4.12812 15.7904 4.23505 15.6657 4.32356 15.5283Z" fill="#B18151"/>
<path d="M10.0089 12.9332C10.0748 12.8375 10.1048 12.7837 10.1048 12.7837H9.89493C9.75101 12.7837 9.56509 12.7837 9.33724 12.8316C9.10935 12.8794 8.83947 12.9033 8.55165 12.9691C8.40772 12.999 8.25778 13.0409 8.10787 13.0827C7.95795 13.1246 7.81403 13.1844 7.66412 13.2442C7.35731 13.3602 7.06379 13.5085 6.78855 13.6866C6.52569 13.8543 6.2858 14.0553 6.07492 14.2846C5.97792 14.3997 5.89535 14.5262 5.82905 14.6613C5.76407 14.7936 5.71188 14.9317 5.67315 15.0739C5.63221 15.2178 5.61204 15.3668 5.61315 15.5164C5.62626 15.6766 5.65642 15.8349 5.70314 15.9887C6.02989 16.0521 6.36586 16.0521 6.69262 15.9887C6.99086 15.9206 7.27768 15.8098 7.54415 15.6599C7.6701 15.5821 7.79604 15.5044 7.91597 15.4147L8.08387 15.2772L8.25778 15.1337C8.47453 14.9519 8.67516 14.7518 8.85749 14.5357C9.03749 14.3469 9.20574 14.1472 9.3612 13.9378L9.46917 13.7823L9.57111 13.6448C9.64308 13.5491 9.70304 13.4594 9.75699 13.3817C9.81097 13.304 9.9549 13.0349 10.0089 12.9332Z" fill="#B18151"/>
<path d="M6.2787 11.1273C6.56211 10.9893 6.80716 10.784 6.99232 10.5294C7.17791 10.2869 7.31439 10.0107 7.39409 9.71618C7.72036 8.46013 7.63403 7.12552 7.52003 5.84745C7.46605 5.35115 7.41211 5.0163 7.41211 5.0163C7.16946 5.20447 6.98583 5.42291 6.80641 5.67404C6.62458 5.91153 6.4564 6.15905 6.30266 6.4155C6.12359 6.71421 5.96336 7.02374 5.82291 7.34233C5.68038 7.67503 5.56604 8.01905 5.48111 8.37082C5.41 8.7128 5.38178 9.0623 5.39714 9.41123C5.40553 9.7449 5.48913 10.0724 5.64173 10.3695C5.79433 10.6665 6.01204 10.9256 6.2787 11.1273Z" fill="#B18151"/>
<path d="M11.3159 10.7685C11.5498 10.5951 11.7657 10.4276 11.9576 10.2602C12.1495 10.0928 12.3294 9.93133 12.4673 9.79381C12.6052 9.6563 12.7312 9.53669 12.8091 9.45298L12.935 9.32144C12.6813 9.2704 12.4251 9.2325 12.1675 9.20782C11.9104 9.18278 11.6521 9.17279 11.3939 9.17794C11.0806 9.17572 10.7676 9.19976 10.4584 9.24969C9.81221 9.32452 9.19441 9.55657 8.65928 9.92535C8.41735 10.1073 8.2136 10.3349 8.0596 10.5951C7.92388 10.8676 7.8599 11.1701 7.87369 11.4741C8.46553 11.7293 9.12983 11.7632 9.74473 11.5697C10.0331 11.4864 10.3108 11.37 10.5723 11.2229C10.8313 11.0903 11.0799 10.9384 11.3159 10.7685Z" fill="#B18151"/>
<path d="M9.4011 8.04431C9.75389 8.04431 10.3044 8.0766 10.7524 7.76694C10.8739 7.67814 10.99 7.58232 11.1002 7.4799C11.2156 7.37781 11.3238 7.26792 11.4241 7.15103C11.6406 6.91777 11.841 6.67003 12.0237 6.40957C12.3716 5.89537 12.6714 5.36317 12.8873 4.96255C12.9952 4.76522 13.0706 4.59191 13.1306 4.47234L13.1712 4.37019L13.1931 4.29883L12.9137 4.31842C12.7278 4.34292 12.619 4.35926 12.4375 4.40647C11.8646 4.55147 11.3125 4.76848 10.7944 5.05225C10.1959 5.36106 9.6783 5.80545 9.28319 6.34979C9.09986 6.60842 8.97692 6.90465 8.92337 7.21683C8.86369 7.47858 8.86535 7.74129 8.92337 8.01209" fill="#B18151"/>
<path d="M30.837 42.2328C31.1134 42.0168 31.4206 41.8434 31.7485 41.7184C32.0554 41.6106 32.3769 41.5501 32.7021 41.539C33.4065 41.5311 34.1087 41.6196 34.7889 41.8022C35.4846 41.9756 36.1503 42.1787 36.642 42.3464C37.1337 42.5137 37.4576 42.6394 37.4576 42.6394C37.4576 42.6394 37.1397 42.8188 36.636 43.0341C36.0052 43.3071 35.3453 43.5077 34.669 43.632C33.9047 43.7817 33.1167 43.7634 32.3602 43.5783C32.0116 43.5037 31.6881 43.3408 31.4213 43.1051C31.1544 42.8694 30.9531 42.5688 30.837 42.2328Z" fill="#B18151"/>
<path d="M32.9602 39.159C32.7014 39.7801 32.2887 40.3253 31.7608 40.7437C31.5106 40.9379 31.2194 41.0729 30.9093 41.1385C30.5896 41.2037 30.2576 41.1725 29.9558 41.0486C29.935 40.4149 30.1064 39.7898 30.4475 39.255C30.7733 38.7582 31.1785 38.3176 31.6469 37.9515C32.0538 37.6248 32.4804 37.3232 32.9242 37.0484C33.278 36.8271 33.5239 36.7017 33.5239 36.7017C33.5239 36.7017 33.5239 36.7794 33.5239 36.917C33.5239 37.0545 33.488 37.2397 33.446 37.479C33.3533 38.0568 33.1902 38.621 32.9602 39.159Z" fill="#B18151"/>
<path d="M37.9617 40.7738C37.6228 40.7699 37.2893 40.6886 36.9868 40.5363C36.6843 40.3837 36.4208 40.1645 36.2166 39.8948C36.3761 39.6132 36.5912 39.3668 36.8489 39.1705C37.1066 38.9742 37.4015 38.832 37.7158 38.7525C38.3945 38.5716 39.0942 38.4809 39.7968 38.4834C40.5104 38.4834 41.224 38.4834 41.7577 38.4834H42.6513C42.6513 38.4834 42.5853 38.5612 42.4653 38.6808C42.3454 38.8005 42.1595 38.962 41.9316 39.1472C41.3832 39.5978 40.7785 39.9757 40.1326 40.2713C39.4577 40.604 38.7146 40.776 37.9617 40.7738Z" fill="#B18151"/>
<path d="M36.6061 38.041C36.4202 38.2961 36.174 38.5017 35.8896 38.6393C35.6051 38.7772 35.2909 38.8427 34.975 38.8305C34.7254 38.2298 34.7104 37.5578 34.933 36.9471C35.146 36.3858 35.4454 35.8613 35.8205 35.3924C36.1623 34.9261 36.5101 34.5252 36.762 34.2444C36.888 34.0947 36.9959 33.9811 37.0679 33.9034L37.1818 33.7837C37.1818 33.7837 37.1818 33.8557 37.2418 33.9811C37.287 34.1606 37.323 34.3422 37.3497 34.5252C37.438 35.098 37.438 35.6808 37.3497 36.2532C37.2558 36.9019 37.0001 37.5166 36.6061 38.041Z" fill="#B18151"/>
<path d="M45.1579 33.0603C45.6496 32.9048 45.9734 32.8151 45.9734 32.8151C45.9734 32.8151 45.9435 32.8988 45.8775 33.0363C45.8115 33.1739 45.7096 33.3593 45.5836 33.5865C45.4577 33.8138 45.3018 34.0767 45.1219 34.3518C45.0319 34.4894 44.936 34.627 44.834 34.7702L44.7561 34.8781L44.6541 35.0095L44.4442 35.2728C43.9262 35.9237 43.2369 36.4187 42.4533 36.7017C42.1287 36.821 41.7795 36.8579 41.4371 36.8088C41.0947 36.7597 40.77 36.6265 40.4923 36.4209C40.6524 35.7818 41.0377 35.2216 41.5777 34.8422C41.7037 34.7405 41.8476 34.6449 41.9915 34.5431L42.4473 34.2562L42.933 33.975C43.0829 33.8916 43.2389 33.8138 43.3948 33.7418C43.9665 33.4756 44.5555 33.2478 45.1579 33.0603Z" fill="#B18151"/>
<path d="M40.324 34.292C40.2426 34.5943 40.081 34.8694 39.8563 35.0883C39.6315 35.3072 39.3519 35.4616 39.0467 35.5357C38.6509 35.0349 38.4261 34.421 38.405 33.7837C38.3892 33.2532 38.4253 32.7225 38.513 32.1991C38.5491 31.9342 38.6052 31.6723 38.6809 31.4158C38.7589 31.1527 38.8368 30.9135 38.9148 30.7162C38.9928 30.5189 39.0587 30.3515 39.1067 30.2378L39.1726 30.0585L39.2986 30.2378C39.3765 30.3574 39.4725 30.5249 39.5804 30.7341C39.8591 31.266 40.0822 31.825 40.2461 32.4024C40.2881 32.5639 40.3301 32.7313 40.366 32.8987C40.3972 33.0568 40.4192 33.2165 40.432 33.3771C40.447 33.5362 40.447 33.6963 40.432 33.8554C40.4098 34.004 40.3737 34.1502 40.324 34.292Z" fill="#B18151"/>
<path d="M45.9135 30.6084C45.7962 30.7443 45.6678 30.8703 45.5297 30.9851C45.3998 31.0972 45.2615 31.1992 45.1159 31.2901C44.844 31.4881 44.5306 31.6222 44.1993 31.6822C43.868 31.7423 43.5274 31.7268 43.2029 31.6369C43.1461 31.3178 43.1667 30.9897 43.2629 30.6802C43.3073 30.5336 43.3698 30.393 43.4488 30.2616C43.527 30.1252 43.6131 29.9934 43.7067 29.867C44.1365 29.3284 44.6557 28.8672 45.2419 28.5036C45.758 28.1404 46.2946 27.807 46.849 27.505L47.6046 27.0984C47.6046 27.0984 47.6046 27.1881 47.5567 27.3376C47.5087 27.4871 47.4547 27.6964 47.3648 27.9356C47.1721 28.5653 46.9001 29.1681 46.5552 29.7294C46.3635 30.0379 46.149 30.3317 45.9135 30.6084Z" fill="#B18151"/>
<path d="M42.1594 30.3574C42.0248 30.6408 41.818 30.8841 41.5597 31.063C40.9834 30.741 40.5539 30.2098 40.3604 29.5801C40.3125 29.4332 40.2745 29.2834 40.2464 29.1316L40.2104 28.9044C40.2104 28.8326 40.2104 28.7549 40.1744 28.6772C40.1387 28.3716 40.1267 28.0637 40.1385 27.7563C40.1585 27.2357 40.2086 26.7166 40.2884 26.2017C40.3244 25.9983 40.3604 25.8309 40.3843 25.7173C40.4083 25.6037 40.4203 25.5379 40.4203 25.5379L40.5702 25.6874C40.7038 25.8199 40.8299 25.9596 40.948 26.106C41.3201 26.5604 41.6418 27.0536 41.9075 27.5769C42.2004 28.1669 42.3581 28.8143 42.3693 29.4724C42.3678 29.6277 42.3477 29.7823 42.3093 29.9328C42.2755 30.0795 42.2252 30.2219 42.1594 30.3574Z" fill="#B18151"/>
<path d="M47.1247 24.928C47.0408 25.0867 46.9445 25.2386 46.8369 25.3824C46.7284 25.5221 46.6102 25.654 46.4831 25.7771C46.2535 26.0181 45.9729 26.205 45.6616 26.324C45.3503 26.4429 45.0163 26.491 44.684 26.4647C44.565 26.1649 44.5217 25.8404 44.558 25.52C44.5764 25.3674 44.6106 25.2171 44.66 25.0715C44.6984 24.9204 44.7486 24.7724 44.8099 24.629C44.9544 24.3264 45.1335 24.0415 45.3436 23.78L45.6675 23.3734C45.7754 23.2358 45.8953 23.1043 46.0093 22.9727C46.4831 22.4585 46.9988 21.9801 47.3646 21.6273C47.7304 21.2745 48.0003 21.0413 48.0003 21.0413C48.0003 21.0413 48.0003 21.4001 48.0003 21.9383C47.9723 22.2473 47.9283 22.5546 47.8683 22.8591C47.8323 23.0265 47.7964 23.1999 47.7544 23.3734C47.7156 23.5517 47.6655 23.7274 47.6045 23.8995C47.4685 24.253 47.3082 24.5966 47.1247 24.928Z" fill="#B18151"/>
<path d="M42.9568 26.0761C42.3426 25.8707 41.8273 25.4443 41.5116 24.8802C41.4348 24.7501 41.3687 24.6141 41.3137 24.4736C41.2451 24.3359 41.185 24.1941 41.1338 24.049C41.0394 23.7701 40.9672 23.4842 40.9179 23.194C40.8639 22.9129 40.804 22.6379 40.774 22.3867C40.774 22.2552 40.774 22.1356 40.738 22.022C40.702 21.9083 40.738 21.8007 40.738 21.6991C40.705 21.4812 40.6849 21.2616 40.678 21.0413C40.678 21.0413 40.9419 21.1908 41.3197 21.4599L41.6255 21.6871C41.7334 21.7768 41.8414 21.8665 41.9493 21.9682C42.1835 22.1771 42.402 22.403 42.603 22.6439C42.7049 22.7694 42.8069 22.9009 42.9029 23.0385L43.0348 23.2478L43.1487 23.469C43.2916 23.7552 43.3964 24.0587 43.4606 24.3719C43.494 24.5231 43.5101 24.6776 43.5086 24.8323C43.4997 24.9819 43.4756 25.1301 43.4366 25.2748C43.3504 25.5794 43.1848 25.8558 42.9568 26.0761Z" fill="#B18151"/>
<path d="M45.4513 17.4536C45.6132 17.1427 45.7871 16.8557 45.955 16.5627L46.4168 15.8153C46.6867 15.3788 46.8845 15.0977 46.8845 15.0977C46.8845 15.0977 46.9865 15.4386 47.0944 15.9648C47.1304 16.2338 47.1724 16.5627 47.1964 16.8916C47.1964 17.059 47.1964 17.2384 47.1964 17.4178C47.1964 17.5971 47.1964 17.7825 47.1964 17.9679C47.1672 18.339 47.107 18.707 47.0165 19.0681C46.9221 19.4145 46.7809 19.7464 46.5967 20.0547C46.4311 20.3428 46.201 20.5887 45.9242 20.7734C45.6475 20.958 45.3317 21.0764 45.0015 21.1191C44.9117 20.983 44.8392 20.8364 44.7856 20.6826C44.729 20.538 44.6887 20.3876 44.6657 20.2341C44.6197 19.9274 44.6339 19.6146 44.7077 19.3133C44.7763 18.99 44.8747 18.6738 45.0015 18.3685C45.1335 18.0516 45.2954 17.7287 45.4513 17.4536Z" fill="#B18151"/>
<path d="M41.5714 20.1564C41.3592 19.949 41.1739 19.716 41.0197 19.4628C40.8513 19.2253 40.7047 18.9731 40.5819 18.7093C40.5159 18.5838 40.468 18.4582 40.408 18.3386L40.2521 17.9799C40.1561 17.7466 40.0841 17.5314 40.0182 17.346C39.8803 16.9813 39.8143 16.7481 39.8143 16.7481C40.0642 16.8126 40.3104 16.8904 40.5519 16.9813C41.0918 17.1836 41.6021 17.4571 42.0691 17.7945C42.2056 17.8876 42.3358 17.9894 42.4589 18.0994C42.5788 18.209 42.6929 18.3248 42.8007 18.4462C43.0159 18.6867 43.1957 18.9565 43.3345 19.2475C43.4573 19.5222 43.5206 19.8197 43.5204 20.1205C43.5245 20.2702 43.5042 20.4197 43.4604 20.563C43.4111 20.7164 43.3426 20.8631 43.2565 20.9995C42.6131 20.924 42.0167 20.6256 41.5714 20.1564Z" fill="#B18151"/>
<path d="M43.6767 15.5283C43.5831 15.4066 43.5045 15.2741 43.4428 15.1337C43.3836 14.9953 43.3393 14.8509 43.3109 14.7031C43.3109 14.5537 43.2689 14.3982 43.2509 14.2427C43.2315 13.9168 43.2496 13.5898 43.3049 13.268C43.3505 12.9236 43.4166 12.5822 43.5028 12.2456C43.6767 11.5639 43.8626 10.9241 44.0365 10.4517C44.2104 9.97932 44.3184 9.62054 44.3184 9.62054C44.3184 9.62054 44.3663 9.69831 44.4383 9.82984C44.5102 9.96138 44.6062 10.1647 44.7201 10.4278C44.9917 11.0286 45.1929 11.6586 45.3198 12.3054C45.3794 12.6633 45.4134 13.0249 45.4218 13.3876C45.4197 13.5678 45.4057 13.7475 45.3798 13.9258C45.3517 14.0973 45.3136 14.267 45.2659 14.434C45.1787 14.7526 45.0232 15.0484 44.8101 15.3011C44.5921 15.5647 44.3118 15.7701 43.9945 15.899C43.8721 15.7904 43.7652 15.6657 43.6767 15.5283Z" fill="#B18151"/>
<path d="M37.9914 12.9332C37.9254 12.8375 37.8954 12.7837 37.8954 12.7837H38.1053C38.2492 12.7837 38.4352 12.7837 38.663 12.8316C38.8909 12.8794 39.1608 12.9033 39.4486 12.9691C39.5925 12.999 39.7425 13.0409 39.8924 13.0827C40.0423 13.1246 40.1862 13.1844 40.3361 13.2442C40.6429 13.3602 40.9365 13.5085 41.2117 13.6866C41.4746 13.8543 41.7145 14.0553 41.9253 14.2846C42.0223 14.3997 42.1049 14.5262 42.1712 14.6613C42.2362 14.7936 42.2884 14.9317 42.3271 15.0739C42.368 15.2178 42.3882 15.3668 42.3871 15.5164C42.374 15.6766 42.3438 15.8349 42.2971 15.9887C41.9704 16.0521 41.6344 16.0521 41.3076 15.9887C41.0094 15.9206 40.7226 15.8098 40.4561 15.6599C40.3302 15.5821 40.2042 15.5044 40.0843 15.4147L39.9164 15.2772L39.7425 15.1337C39.5257 14.9519 39.3251 14.7518 39.1428 14.5357C38.9628 14.3469 38.7945 14.1472 38.6391 13.9378L38.5311 13.7823L38.4291 13.6448C38.3572 13.5491 38.2972 13.4594 38.2433 13.3817C38.1893 13.304 38.0454 13.0349 37.9914 12.9332Z" fill="#B18151"/>
<path d="M41.7216 11.1273C41.4381 10.9893 41.1931 10.784 41.0079 10.5294C40.8223 10.2869 40.6859 10.0107 40.6062 9.71618C40.2799 8.46013 40.3662 7.12552 40.4802 5.84745C40.5342 5.35115 40.5881 5.0163 40.5881 5.0163C40.8308 5.20447 41.0144 5.42291 41.1938 5.67404C41.3757 5.91153 41.5439 6.15905 41.6976 6.4155C41.8767 6.71421 42.0369 7.02374 42.1773 7.34233C42.3199 7.67503 42.4342 8.01905 42.5191 8.37082C42.5903 8.7128 42.6185 9.0623 42.6031 9.41123C42.5947 9.7449 42.5111 10.0724 42.3585 10.3695C42.2059 10.6665 41.9882 10.9256 41.7216 11.1273Z" fill="#B18151"/>
<path d="M36.6843 10.7685C36.4505 10.5951 36.2346 10.4276 36.0427 10.2602C35.8508 10.0928 35.6709 9.93133 35.533 9.79381C35.395 9.6563 35.2691 9.53669 35.1911 9.45298L35.0652 9.32144C35.3189 9.2704 35.5751 9.2325 35.8328 9.20782C36.0899 9.18278 36.3482 9.17279 36.6064 9.17794C36.9197 9.17572 37.2326 9.19976 37.5419 9.24969C38.188 9.32452 38.8058 9.55657 39.341 9.92535C39.5829 10.1073 39.7867 10.3349 39.9406 10.5951C40.0764 10.8676 40.1404 11.1701 40.1266 11.4741C39.5347 11.7293 38.8704 11.7632 38.2555 11.5697C37.9672 11.4864 37.6895 11.37 37.428 11.2229C37.169 11.0903 36.9204 10.9384 36.6843 10.7685Z" fill="#B18151"/>
<path d="M38.5992 8.04431C38.2464 8.04431 37.6958 8.0766 37.2478 7.76694C37.1264 7.67814 37.0102 7.58232 36.9 7.4799C36.7847 7.37781 36.6765 7.26792 36.5762 7.15103C36.3597 6.91777 36.1593 6.67003 35.9765 6.40957C35.6287 5.89537 35.3288 5.36317 35.113 4.96255C35.005 4.76522 34.9296 4.59191 34.8697 4.47234L34.8291 4.37019L34.8071 4.29883L35.0865 4.31842C35.2725 4.34292 35.3812 4.35926 35.5627 4.40647C36.1357 4.55147 36.6878 4.76848 37.2059 5.05225C37.8044 5.36106 38.322 5.80545 38.7171 6.34979C38.9004 6.60842 39.0233 6.90465 39.0769 7.21683C39.1366 7.47858 39.1349 7.74129 39.0769 8.01209" fill="#B18151"/>
<path fill-rule="evenodd" clip-rule="evenodd" d="M16.585 26.9555C18.2408 23.8538 19.9202 20.7521 21.576 17.6504L23.4684 21.1783L21.4104 25.014C21.6943 25.1087 21.9545 25.2508 22.2147 25.3692C22.0018 25.3692 21.7889 25.3455 21.576 25.3455C21.3631 25.3455 21.2449 25.3455 21.2449 25.3455C19.5181 25.4165 17.9096 25.9848 16.585 26.9555Z" fill="#B18151"/>
<path fill-rule="evenodd" clip-rule="evenodd" d="M29.1932 29.9864H32.9779L23.9656 13.1992L22.0732 16.7271L27.5374 26.9083C27.088 26.7899 26.6149 26.6952 26.1418 26.6479C27.4664 27.4766 28.4363 28.5894 29.1695 29.9627" fill="#B18151"/>
<path fill-rule="evenodd" clip-rule="evenodd" d="M21.5996 26.459C24.3435 26.459 26.7799 27.8559 28.2228 29.9632C27.111 28.9688 25.6208 28.3532 24.0123 28.3532C22.4038 28.3532 20.9136 28.9688 19.8018 29.9632H15C16.4429 27.8323 18.8557 26.459 21.6232 26.459" fill="#B18151"/>
</g>
<defs>
<clipPath id="clip0_229_1153">
<rect width="48" height="48" fill="white"/>
</clipPath>
</defs>
</svg>
