<svg preserveAspectRatio="none" width="100%" height="100%" overflow="visible" style="display: block;" viewBox="0 0 48 48" fill="none" xmlns="http://www.w3.org/2000/svg">
<g id="a-design-award">
<g id="Vector">
<path d="M17.1632 42.2324C16.8869 42.0164 16.5796 41.8431 16.2517 41.718C15.9449 41.6102 15.6233 41.5497 15.2982 41.5386C14.5938 41.5307 13.8916 41.6192 13.2113 41.8019C12.5157 41.9752 11.85 42.1783 11.3583 42.346C10.8665 42.5133 10.5427 42.639 10.5427 42.639C10.5427 42.639 10.8605 42.8185 11.3643 43.0337C11.995 43.3067 12.6549 43.5073 13.3312 43.6316C14.0956 43.7813 14.8835 43.7631 15.64 43.5779C15.9887 43.5034 16.3121 43.3404 16.579 43.1047C16.8459 42.869 17.0471 42.5684 17.1632 42.2324Z" fill="var(--fill-0, #B18151)"/>
<path d="M15.0401 39.1586C15.2988 39.7798 15.7115 40.3249 16.2394 40.7433C16.4896 40.9375 16.7808 41.0725 17.091 41.1381C17.4107 41.2033 17.7426 41.1721 18.0445 41.0482C18.0653 40.4145 17.8939 39.7894 17.5527 39.2546C17.2269 38.7578 16.8218 38.3172 16.3534 37.9511C15.9464 37.6244 15.5198 37.3228 15.076 37.0481C14.7222 36.8267 14.4763 36.7013 14.4763 36.7013C14.4763 36.7013 14.4763 36.779 14.4763 36.9166C14.4763 37.0541 14.5123 37.2393 14.5543 37.4786C14.6469 38.0564 14.81 38.6206 15.0401 39.1586Z" fill="var(--fill-0, #B18151)"/>
<path d="M10.0386 40.7734C10.3774 40.7695 10.7109 40.6882 11.0134 40.5359C11.3159 40.3833 11.5794 40.1641 11.7837 39.8944C11.6241 39.6128 11.409 39.3664 11.1514 39.1701C10.8937 38.9738 10.5988 38.8316 10.2844 38.7521C9.60578 38.5712 8.90605 38.4805 8.2035 38.483C7.48987 38.483 6.77625 38.483 6.24255 38.483H5.349C5.349 38.483 5.41498 38.5608 5.53491 38.6804C5.65484 38.8001 5.84075 38.9616 6.06864 39.1468C6.61706 39.5974 7.22179 39.9753 7.86768 40.2709C8.54258 40.6036 9.28568 40.7756 10.0386 40.7734Z" fill="var(--fill-0, #B18151)"/>
<path d="M11.3941 38.0407C11.5801 38.2957 11.8262 38.5013 12.1107 38.6389C12.3952 38.7768 12.7093 38.8423 13.0253 38.8301C13.2748 38.2294 13.2898 37.5574 13.0673 36.9467C12.8543 36.3854 12.5548 35.861 12.1797 35.3921C11.8379 34.9257 11.4901 34.5248 11.2382 34.244C11.1123 34.0943 11.0043 33.9807 10.9324 33.903L10.8185 33.7833C10.8185 33.7833 10.8185 33.8553 10.7585 33.9807C10.7133 34.1602 10.6772 34.3418 10.6505 34.5248C10.5622 35.0976 10.5622 35.6804 10.6505 36.2528C10.7445 36.9016 11.0002 37.5162 11.3941 38.0407Z" fill="var(--fill-0, #B18151)"/>
<path d="M2.84239 33.0599C2.35064 32.9044 2.02682 32.8147 2.02682 32.8147C2.02682 32.8147 2.0568 32.8984 2.12279 33.0359C2.18873 33.1735 2.29068 33.3589 2.41662 33.5861C2.54253 33.8134 2.69846 34.0764 2.87839 34.3515C2.96834 34.489 3.06427 34.6266 3.16621 34.7698L3.24419 34.8777L3.34614 35.0091L3.55602 35.2724C4.07406 35.9233 4.76332 36.4183 5.54698 36.7013C5.87151 36.8206 6.22077 36.8575 6.56315 36.8084C6.90556 36.7593 7.23027 36.6261 7.50796 36.4205C7.34784 35.7814 6.96258 35.2212 6.42251 34.8418C6.2966 34.7401 6.15267 34.6445 6.00874 34.5427L5.553 34.2558L5.06723 33.9746C4.91732 33.8912 4.76139 33.8134 4.60546 33.7414C4.03376 33.4752 3.44476 33.2474 2.84239 33.0599Z" fill="var(--fill-0, #B18151)"/>
<path d="M7.67622 34.2916C7.75767 34.5939 7.91923 34.8691 8.14397 35.0879C8.36871 35.3068 8.64833 35.4612 8.95356 35.5353C9.34934 35.0345 9.57415 34.4206 9.59522 33.7833C9.61105 33.2528 9.5749 32.7222 9.48725 32.1987C9.45114 31.9338 9.39501 31.6719 9.31936 31.4154C9.24138 31.1523 9.16343 30.9131 9.08548 30.7158C9.0075 30.5185 8.94156 30.3511 8.89359 30.2374L8.82761 30.0581L8.70166 30.2374C8.62372 30.3571 8.52775 30.5245 8.41982 30.7337C8.14114 31.2656 7.91808 31.8246 7.75416 32.402C7.71218 32.5635 7.6702 32.7309 7.63424 32.8983C7.60304 33.0564 7.58101 33.2161 7.56825 33.3767C7.55328 33.5358 7.55328 33.6959 7.56825 33.855C7.59043 34.0036 7.62657 34.1498 7.67622 34.2916Z" fill="var(--fill-0, #B18151)"/>
<path d="M2.08674 30.608C2.20406 30.7439 2.33244 30.8699 2.47057 30.9847C2.60042 31.0968 2.73876 31.1988 2.88433 31.2897C3.15629 31.4877 3.46965 31.6218 3.80095 31.6818C4.13226 31.7419 4.47288 31.7264 4.79735 31.6365C4.85413 31.3174 4.83356 30.9894 4.73738 30.6798C4.69293 30.5332 4.63049 30.3926 4.55147 30.2612C4.47328 30.1248 4.38716 29.993 4.2936 29.8666C3.86378 29.328 3.34452 28.8669 2.75839 28.5032C2.24228 28.14 1.70568 27.8066 1.15125 27.5047L0.395639 27.0981C0.395639 27.0981 0.395639 27.1877 0.443603 27.3372C0.491603 27.4867 0.54555 27.696 0.635496 27.9352C0.828105 28.5649 1.10013 29.1677 1.44508 29.729C1.6368 30.0375 1.85129 30.3313 2.08674 30.608Z" fill="var(--fill-0, #B18151)"/>
<path d="M5.84086 30.357C5.97544 30.6404 6.18223 30.8837 6.44054 31.0626C7.01683 30.7406 7.44639 30.2094 7.63989 29.5797C7.68771 29.4328 7.72579 29.283 7.75384 29.1312L7.78984 28.904C7.78984 28.8322 7.78984 28.7545 7.8258 28.6768C7.86155 28.3712 7.87359 28.0633 7.8618 27.7559C7.84174 27.2353 7.79167 26.7162 7.71186 26.2013C7.67589 25.9979 7.63989 25.8305 7.61593 25.7169C7.59193 25.6033 7.57993 25.5375 7.57993 25.5375L7.43002 25.687C7.29644 25.8195 7.17032 25.9592 7.05222 26.1056C6.68018 26.56 6.35847 27.0532 6.09272 27.5765C5.79988 28.1665 5.64216 28.8139 5.63095 29.472C5.63242 29.6274 5.65255 29.7819 5.69091 29.9324C5.7248 30.0791 5.77509 30.2215 5.84086 30.357Z" fill="var(--fill-0, #B18151)"/>
<path d="M0.875534 24.9276C0.959498 25.0863 1.05575 25.2383 1.16339 25.382C1.27189 25.5217 1.3901 25.6536 1.51719 25.7767C1.74674 26.0178 2.02739 26.2046 2.33868 26.3236C2.64996 26.4425 2.98395 26.4906 3.31626 26.4643C3.43526 26.1645 3.47853 25.8401 3.44221 25.5196C3.42383 25.367 3.3897 25.2167 3.34026 25.0711C3.30183 24.92 3.25168 24.772 3.19032 24.6286C3.04589 24.326 2.86678 24.0411 2.65662 23.7796L2.33276 23.373C2.22484 23.2354 2.10491 23.1039 1.99096 22.9723C1.5172 22.4581 1.00148 21.9797 0.635678 21.6269C0.269874 21.2741 0 21.0409 0 21.0409C0 21.0409 0 21.3997 0 21.9379C0.0279761 22.2469 0.0719999 22.5542 0.131928 22.8587C0.167928 23.0261 0.203892 23.1996 0.245875 23.373C0.284704 23.5513 0.334782 23.727 0.395785 23.8991C0.531726 24.2526 0.692024 24.5962 0.875534 24.9276Z" fill="var(--fill-0, #B18151)"/>
<path d="M5.04342 26.0757C5.65767 25.8703 6.17299 25.4439 6.48868 24.8798C6.56541 24.7497 6.63157 24.6138 6.68656 24.4732C6.75519 24.3355 6.81526 24.1937 6.86649 24.0486C6.96087 23.7697 7.03305 23.4838 7.08238 23.1936C7.13633 22.9125 7.19629 22.6375 7.22627 22.3863C7.22627 22.2548 7.22627 22.1352 7.26227 22.0216C7.29824 21.908 7.26227 21.8003 7.26227 21.6987C7.2953 21.4808 7.31532 21.2612 7.32224 21.0409C7.32224 21.0409 7.05838 21.1904 6.68058 21.4595L6.37474 21.6867C6.26681 21.7764 6.15884 21.8661 6.05092 21.9678C5.81672 22.1768 5.59825 22.4026 5.39726 22.6435C5.29531 22.769 5.19336 22.9006 5.0974 23.0381L4.96547 23.2474L4.85152 23.4686C4.70867 23.7548 4.60382 24.0583 4.5397 24.3715C4.50628 24.5227 4.4902 24.6772 4.4917 24.8319C4.50059 24.9815 4.52469 25.1298 4.56367 25.2744C4.64989 25.579 4.81542 25.8555 5.04342 26.0757Z" fill="var(--fill-0, #B18151)"/>
<path d="M2.54896 17.4533C2.38705 17.1423 2.21314 16.8553 2.04525 16.5623L1.58348 15.8149C1.3136 15.3784 1.11573 15.0974 1.11573 15.0974C1.11573 15.0974 1.01378 15.4382 0.905819 15.9644C0.869855 16.2335 0.827872 16.5623 0.803872 16.8912C0.803872 17.0586 0.803872 17.238 0.803872 17.4174C0.803872 17.5968 0.803872 17.7821 0.803872 17.9675C0.833102 18.3386 0.893281 18.7066 0.9838 19.0677C1.07815 19.4141 1.21936 19.746 1.40359 20.0544C1.56915 20.3424 1.79926 20.5883 2.07602 20.773C2.35273 20.9577 2.66853 21.076 2.99873 21.1187C3.08853 20.9827 3.16107 20.836 3.21462 20.6822C3.27129 20.5377 3.31151 20.3872 3.33455 20.2337C3.38058 19.927 3.36632 19.6142 3.2926 19.3129C3.22393 18.9897 3.12557 18.6734 2.99873 18.3681C2.8668 18.0512 2.70489 17.7283 2.54896 17.4533Z" fill="var(--fill-0, #B18151)"/>
<path d="M6.42886 20.156C6.64106 19.9486 6.8264 19.7156 6.98057 19.4624C7.149 19.2249 7.29554 18.9727 7.41834 18.709C7.48432 18.5834 7.53229 18.4578 7.59225 18.3382L7.74818 17.9795C7.84414 17.7462 7.91611 17.531 7.98205 17.3456C8.12 16.9809 8.18595 16.7477 8.18595 16.7477C7.93606 16.8122 7.68983 16.89 7.44832 16.9809C6.90846 17.1832 6.39819 17.4567 5.93113 17.7941C5.79468 17.8872 5.66448 17.989 5.54132 18.099C5.42143 18.2086 5.30734 18.3244 5.19952 18.4458C4.98431 18.6863 4.80459 18.9561 4.66579 19.2471C4.54299 19.5218 4.47966 19.8193 4.47988 20.1201C4.47579 20.2698 4.49603 20.4193 4.53984 20.5626C4.58917 20.716 4.65769 20.8627 4.74373 20.9991C5.38719 20.9236 5.9836 20.6252 6.42886 20.156Z" fill="var(--fill-0, #B18151)"/>
<path d="M4.32356 15.5279C4.4172 15.4062 4.49575 15.2737 4.55747 15.1333C4.61669 14.9949 4.66093 14.8505 4.6894 14.7027C4.6894 14.5533 4.73135 14.3978 4.74937 14.2423C4.76875 13.9164 4.75062 13.5894 4.69538 13.2676C4.64971 12.9232 4.58362 12.5818 4.49747 12.2452C4.32356 11.5635 4.13769 10.9237 3.96378 10.4513C3.78987 9.97893 3.6819 9.62015 3.6819 9.62015C3.6819 9.62015 3.63394 9.69792 3.56198 9.82945C3.49001 9.96099 3.39405 10.1643 3.28014 10.4274C3.00858 11.0282 2.80737 11.6582 2.68042 12.305C2.62089 12.6629 2.58682 13.0245 2.57848 13.3873C2.58055 13.5674 2.59456 13.7471 2.62046 13.9254C2.64858 14.0969 2.68662 14.2666 2.7344 14.4337C2.82152 14.7522 2.97706 15.048 3.19015 15.3007C3.40816 15.5643 3.68842 15.7697 4.00576 15.8986C4.12812 15.79 4.23505 15.6653 4.32356 15.5279Z" fill="var(--fill-0, #B18151)"/>
<path d="M10.0089 12.9328C10.0748 12.8371 10.1048 12.7833 10.1048 12.7833H9.89493C9.75101 12.7833 9.5651 12.7833 9.33724 12.8312C9.10935 12.879 8.83947 12.9029 8.55165 12.9687C8.40772 12.9986 8.25778 13.0405 8.10786 13.0823C7.95795 13.1242 7.81403 13.184 7.66412 13.2438C7.35731 13.3598 7.06379 13.5081 6.78855 13.6862C6.52569 13.8539 6.2858 14.0549 6.07492 14.2842C5.97792 14.3993 5.89535 14.5258 5.82905 14.6609C5.76407 14.7932 5.71188 14.9313 5.67315 15.0735C5.63221 15.2174 5.61204 15.3664 5.61315 15.516C5.62626 15.6762 5.65642 15.8345 5.70314 15.9883C6.02989 16.0517 6.36586 16.0517 6.69262 15.9883C6.99086 15.9202 7.27768 15.8094 7.54415 15.6595C7.6701 15.5817 7.79604 15.504 7.91597 15.4143L8.08387 15.2768L8.25778 15.1333C8.47453 14.9515 8.67516 14.7514 8.85749 14.5353C9.03749 14.3465 9.20574 14.1468 9.3612 13.9374L9.46917 13.7819L9.57111 13.6444C9.64308 13.5487 9.70304 13.459 9.75699 13.3813C9.81097 13.3036 9.9549 13.0345 10.0089 12.9328Z" fill="var(--fill-0, #B18151)"/>
<path d="M6.2787 11.127C6.56211 10.9889 6.80716 10.7836 6.99232 10.529C7.17791 10.2865 7.31439 10.0103 7.39409 9.71579C7.72036 8.45974 7.63403 7.12513 7.52003 5.84706C7.46605 5.35076 7.4121 5.01591 7.4121 5.01591C7.16946 5.20408 6.98583 5.42252 6.80641 5.67365C6.62458 5.91114 6.4564 6.15866 6.30266 6.41511C6.12359 6.71382 5.96336 7.02334 5.82291 7.34194C5.68038 7.67464 5.56604 8.01866 5.48111 8.37042C5.41 8.71241 5.38178 9.06191 5.39714 9.41084C5.40553 9.74451 5.48913 10.072 5.64173 10.3691C5.79433 10.6662 6.01204 10.9252 6.2787 11.127Z" fill="var(--fill-0, #B18151)"/>
<path d="M11.3159 10.7681C11.5498 10.5947 11.7657 10.4272 11.9576 10.2598C12.1495 10.0924 12.3294 9.93094 12.4673 9.79342C12.6052 9.65591 12.7312 9.5363 12.8091 9.45259L12.935 9.32105C12.6813 9.27001 12.4251 9.23211 12.1675 9.20743C11.9104 9.18239 11.6521 9.1724 11.3939 9.17755C11.0806 9.17533 10.7676 9.19937 10.4584 9.2493C9.81221 9.32413 9.19441 9.55618 8.65928 9.92496C8.41735 10.1069 8.2136 10.3345 8.0596 10.5947C7.92388 10.8672 7.8599 11.1697 7.87369 11.4737C8.46553 11.7289 9.12983 11.7629 9.74473 11.5693C10.0331 11.486 10.3108 11.3696 10.5723 11.2225C10.8313 11.0899 11.0799 10.938 11.3159 10.7681Z" fill="var(--fill-0, #B18151)"/>
<path d="M9.4011 8.04391C9.75389 8.04391 10.3044 8.07621 10.7524 7.76655C10.8739 7.67775 10.99 7.58192 11.1002 7.47951C11.2156 7.37742 11.3238 7.26752 11.4241 7.15064C11.6406 6.91738 11.841 6.66964 12.0237 6.40918C12.3716 5.89498 12.6714 5.36278 12.8873 4.96216C12.9952 4.76483 13.0706 4.59152 13.1306 4.47195L13.1712 4.3698L13.1931 4.29844L12.9137 4.31803C12.7278 4.34253 12.619 4.35887 12.4375 4.40608C11.8646 4.55108 11.3125 4.76809 10.7944 5.05186C10.1959 5.36067 9.6783 5.80506 9.28319 6.3494C9.09986 6.60803 8.97692 6.90426 8.92337 7.21644C8.86369 7.47819 8.86535 7.7409 8.92337 8.0117" fill="var(--fill-0, #B18151)"/>
</g>
<g id="Vector_2">
<path d="M30.8366 42.2324C31.113 42.0164 31.4202 41.8431 31.7481 41.718C32.055 41.6102 32.3765 41.5497 32.7017 41.5386C33.4061 41.5307 34.1083 41.6192 34.7886 41.8019C35.4842 41.9752 36.1499 42.1783 36.6416 42.346C37.1333 42.5133 37.4572 42.639 37.4572 42.639C37.4572 42.639 37.1393 42.8185 36.6356 43.0337C36.0048 43.3067 35.3449 43.5073 34.6686 43.6316C33.9043 43.7813 33.1163 43.7631 32.3598 43.5779C32.0112 43.5034 31.6878 43.3404 31.4209 43.1047C31.154 42.869 30.9527 42.5684 30.8366 42.2324Z" fill="var(--fill-0, #B18151)"/>
<path d="M32.9598 39.1586C32.701 39.7798 32.2883 40.3249 31.7605 40.7433C31.5102 40.9375 31.2191 41.0725 30.9089 41.1381C30.5892 41.2033 30.2572 41.1721 29.9554 41.0482C29.9346 40.4145 30.106 39.7894 30.4472 39.2546C30.7729 38.7578 31.1781 38.3172 31.6465 37.9511C32.0534 37.6244 32.48 37.3228 32.9238 37.0481C33.2777 36.8267 33.5235 36.7013 33.5235 36.7013C33.5235 36.7013 33.5235 36.779 33.5235 36.9166C33.5235 37.0541 33.4876 37.2393 33.4456 37.4786C33.3529 38.0564 33.1898 38.6206 32.9598 39.1586Z" fill="var(--fill-0, #B18151)"/>
<path d="M37.9613 40.7734C37.6224 40.7695 37.2889 40.6882 36.9864 40.5359C36.6839 40.3833 36.4205 40.1641 36.2162 39.8944C36.3757 39.6128 36.5908 39.3664 36.8485 39.1701C37.1062 38.9738 37.4011 38.8316 37.7154 38.7521C38.3941 38.5712 39.0938 38.4805 39.7964 38.483C40.51 38.483 41.2236 38.483 41.7573 38.483H42.6509C42.6509 38.483 42.5849 38.5608 42.465 38.6804C42.345 38.8001 42.1591 38.9616 41.9312 39.1468C41.3828 39.5974 40.7781 39.9753 40.1322 40.2709C39.4573 40.6036 38.7142 40.7756 37.9613 40.7734Z" fill="var(--fill-0, #B18151)"/>
<path d="M36.6057 38.0407C36.4198 38.2957 36.1737 38.5013 35.8892 38.6389C35.6047 38.7768 35.2906 38.8423 34.9746 38.8301C34.725 38.2294 34.71 37.5574 34.9326 36.9467C35.1456 36.3854 35.445 35.861 35.8201 35.3921C36.1619 34.9257 36.5098 34.5248 36.7616 34.244C36.8876 34.0943 36.9955 33.9807 37.0675 33.903L37.1814 33.7833C37.1814 33.7833 37.1814 33.8553 37.2414 33.9807C37.2866 34.1602 37.3226 34.3418 37.3493 34.5248C37.4376 35.0976 37.4376 35.6804 37.3493 36.2528C37.2554 36.9016 36.9997 37.5162 36.6057 38.0407Z" fill="var(--fill-0, #B18151)"/>
<path d="M45.1575 33.0599C45.6492 32.9044 45.973 32.8147 45.973 32.8147C45.973 32.8147 45.9431 32.8984 45.8771 33.0359C45.8111 33.1735 45.7092 33.3589 45.5832 33.5861C45.4573 33.8134 45.3014 34.0764 45.1215 34.3515C45.0315 34.489 44.9356 34.6266 44.8337 34.7698L44.7557 34.8777L44.6537 35.0091L44.4438 35.2724C43.9258 35.9233 43.2365 36.4183 42.4529 36.7013C42.1284 36.8206 41.7791 36.8575 41.4367 36.8084C41.0943 36.7593 40.7696 36.6261 40.4919 36.4205C40.652 35.7814 41.0373 35.2212 41.5774 34.8418C41.7033 34.7401 41.8472 34.6445 41.9911 34.5427L42.4469 34.2558L42.9326 33.9746C43.0825 33.8912 43.2385 33.8134 43.3944 33.7414C43.9661 33.4752 44.5551 33.2474 45.1575 33.0599Z" fill="var(--fill-0, #B18151)"/>
<path d="M40.3236 34.2916C40.2422 34.5939 40.0806 34.8691 39.8559 35.0879C39.6312 35.3068 39.3515 35.4612 39.0463 35.5353C38.6505 35.0345 38.4257 34.4206 38.4046 33.7833C38.3888 33.2528 38.425 32.7222 38.5126 32.1987C38.5487 31.9338 38.6049 31.6719 38.6805 31.4154C38.7585 31.1523 38.8364 30.9131 38.9144 30.7158C38.9924 30.5185 39.0583 30.3511 39.1063 30.2374L39.1723 30.0581L39.2982 30.2374C39.3761 30.3571 39.4721 30.5245 39.58 30.7337C39.8587 31.2656 40.0818 31.8246 40.2457 32.402C40.2877 32.5635 40.3297 32.7309 40.3656 32.8983C40.3968 33.0564 40.4189 33.2161 40.4316 33.3767C40.4466 33.5358 40.4466 33.6959 40.4316 33.855C40.4094 34.0036 40.3733 34.1498 40.3236 34.2916Z" fill="var(--fill-0, #B18151)"/>
<path d="M45.9131 30.608C45.7958 30.7439 45.6674 30.8699 45.5293 30.9847C45.3994 31.0968 45.2611 31.1988 45.1155 31.2897C44.8436 31.4877 44.5302 31.6218 44.1989 31.6818C43.8676 31.7419 43.527 31.7264 43.2025 31.6365C43.1457 31.3174 43.1663 30.9894 43.2625 30.6798C43.3069 30.5332 43.3694 30.3926 43.4484 30.2612C43.5266 30.1248 43.6127 29.993 43.7063 29.8666C44.1361 29.328 44.6553 28.8669 45.2415 28.5032C45.7576 28.14 46.2942 27.8066 46.8486 27.5047L47.6042 27.0981C47.6042 27.0981 47.6042 27.1877 47.5563 27.3372C47.5083 27.4867 47.4543 27.696 47.3644 27.9352C47.1718 28.5649 46.8997 29.1677 46.5548 29.729C46.3631 30.0375 46.1486 30.3313 45.9131 30.608Z" fill="var(--fill-0, #B18151)"/>
<path d="M42.159 30.357C42.0244 30.6404 41.8176 30.8837 41.5593 31.0626C40.983 30.7406 40.5535 30.2094 40.36 29.5797C40.3121 29.4328 40.2741 29.283 40.246 29.1312L40.21 28.904C40.21 28.8322 40.21 28.7545 40.1741 28.6768C40.1383 28.3712 40.1263 28.0633 40.1381 27.7559C40.1581 27.2353 40.2082 26.7162 40.288 26.2013C40.324 25.9979 40.36 25.8305 40.3839 25.7169C40.4079 25.6033 40.4199 25.5375 40.4199 25.5375L40.5698 25.687C40.7034 25.8195 40.8295 25.9592 40.9476 26.1056C41.3197 26.56 41.6414 27.0532 41.9071 27.5765C42.2 28.1665 42.3577 28.8139 42.3689 29.472C42.3674 29.6274 42.3473 29.7819 42.309 29.9324C42.2751 30.0791 42.2248 30.2215 42.159 30.357Z" fill="var(--fill-0, #B18151)"/>
<path d="M47.1243 24.9276C47.0404 25.0863 46.9441 25.2383 46.8365 25.382C46.728 25.5217 46.6098 25.6536 46.4827 25.7767C46.2531 26.0178 45.9725 26.2046 45.6612 26.3236C45.3499 26.4425 45.0159 26.4906 44.6836 26.4643C44.5646 26.1645 44.5213 25.8401 44.5577 25.5196C44.576 25.367 44.6102 25.2167 44.6596 25.0711C44.698 24.92 44.7482 24.772 44.8095 24.6286C44.954 24.326 45.1331 24.0411 45.3432 23.7796L45.6671 23.373C45.775 23.2354 45.895 23.1039 46.0089 22.9723C46.4827 22.4581 46.9984 21.9797 47.3642 21.6269C47.73 21.2741 47.9999 21.0409 47.9999 21.0409C47.9999 21.0409 47.9999 21.3997 47.9999 21.9379C47.9719 22.2469 47.9279 22.5542 47.8679 22.8587C47.8319 23.0261 47.796 23.1996 47.754 23.373C47.7152 23.5513 47.6651 23.727 47.6041 23.8991C47.4681 24.2526 47.3078 24.5962 47.1243 24.9276Z" fill="var(--fill-0, #B18151)"/>
<path d="M42.9564 26.0757C42.3422 25.8703 41.8269 25.4439 41.5112 24.8798C41.4345 24.7497 41.3683 24.6138 41.3133 24.4732C41.2447 24.3355 41.1846 24.1937 41.1334 24.0486C41.039 23.7697 40.9668 23.4838 40.9175 23.1936C40.8635 22.9125 40.8036 22.6375 40.7736 22.3863C40.7736 22.2548 40.7736 22.1352 40.7376 22.0216C40.7016 21.908 40.7376 21.8003 40.7376 21.6987C40.7046 21.4808 40.6845 21.2612 40.6776 21.0409C40.6776 21.0409 40.9415 21.1904 41.3193 21.4595L41.6251 21.6867C41.7331 21.7764 41.841 21.8661 41.9489 21.9678C42.1831 22.1768 42.4016 22.4026 42.6026 22.6435C42.7046 22.769 42.8065 22.9006 42.9025 23.0381L43.0344 23.2474L43.1483 23.4686C43.2912 23.7548 43.396 24.0583 43.4602 24.3715C43.4936 24.5227 43.5097 24.6772 43.5082 24.8319C43.4993 24.9815 43.4752 25.1298 43.4362 25.2744C43.35 25.579 43.1844 25.8555 42.9564 26.0757Z" fill="var(--fill-0, #B18151)"/>
<path d="M45.4509 17.4533C45.6128 17.1423 45.7867 16.8553 45.9546 16.5623L46.4164 15.8149C46.6863 15.3784 46.8841 15.0974 46.8841 15.0974C46.8841 15.0974 46.9861 15.4382 47.094 15.9644C47.13 16.2335 47.172 16.5623 47.196 16.8912C47.196 17.0586 47.196 17.238 47.196 17.4174C47.196 17.5968 47.196 17.7821 47.196 17.9675C47.1668 18.3386 47.1066 18.7066 47.0161 19.0677C46.9217 19.4141 46.7805 19.746 46.5963 20.0544C46.4307 20.3424 46.2006 20.5883 45.9238 20.773C45.6471 20.9577 45.3313 21.076 45.0011 21.1187C44.9113 20.9827 44.8388 20.836 44.7852 20.6822C44.7286 20.5377 44.6883 20.3872 44.6653 20.2337C44.6193 19.927 44.6335 19.6142 44.7073 19.3129C44.7759 18.9897 44.8743 18.6734 45.0011 18.3681C45.1331 18.0512 45.295 17.7283 45.4509 17.4533Z" fill="var(--fill-0, #B18151)"/>
<path d="M41.571 20.156C41.3588 19.9486 41.1735 19.7156 41.0193 19.4624C40.8509 19.2249 40.7043 18.9727 40.5815 18.709C40.5155 18.5834 40.4676 18.4578 40.4076 18.3382L40.2517 17.9795C40.1557 17.7462 40.0838 17.531 40.0178 17.3456C39.8799 16.9809 39.8139 16.7477 39.8139 16.7477C40.0638 16.8122 40.31 16.89 40.5515 16.9809C41.0914 17.1832 41.6017 17.4567 42.0687 17.7941C42.2052 17.8872 42.3354 17.989 42.4585 18.099C42.5784 18.2086 42.6925 18.3244 42.8003 18.4458C43.0156 18.6863 43.1953 18.9561 43.3341 19.2471C43.4569 19.5218 43.5202 19.8193 43.52 20.1201C43.5241 20.2698 43.5038 20.4193 43.46 20.5626C43.4107 20.716 43.3422 20.8627 43.2561 20.9991C42.6127 20.9236 42.0163 20.6252 41.571 20.156Z" fill="var(--fill-0, #B18151)"/>
<path d="M43.6763 15.5279C43.5827 15.4062 43.5041 15.2737 43.4424 15.1333C43.3832 14.9949 43.3389 14.8505 43.3105 14.7027C43.3105 14.5533 43.2685 14.3978 43.2505 14.2423C43.2311 13.9164 43.2492 13.5894 43.3045 13.2676C43.3502 12.9232 43.4162 12.5818 43.5024 12.2452C43.6763 11.5635 43.8622 10.9237 44.0361 10.4513C44.21 9.97893 44.318 9.62015 44.318 9.62015C44.318 9.62015 44.3659 9.69792 44.4379 9.82945C44.5099 9.96099 44.6058 10.1643 44.7197 10.4274C44.9913 11.0282 45.1925 11.6582 45.3194 12.305C45.379 12.6629 45.413 13.0245 45.4214 13.3873C45.4193 13.5674 45.4053 13.7471 45.3794 13.9254C45.3513 14.0969 45.3132 14.2666 45.2655 14.4337C45.1783 14.7522 45.0228 15.048 44.8097 15.3007C44.5917 15.5643 44.3114 15.7697 43.9941 15.8986C43.8717 15.79 43.7648 15.6653 43.6763 15.5279Z" fill="var(--fill-0, #B18151)"/>
<path d="M37.991 12.9328C37.925 12.8371 37.8951 12.7833 37.8951 12.7833H38.1049C38.2489 12.7833 38.4348 12.7833 38.6626 12.8312C38.8905 12.879 39.1604 12.9029 39.4482 12.9687C39.5921 12.9986 39.7421 13.0405 39.892 13.0823C40.0419 13.1242 40.1858 13.184 40.3357 13.2438C40.6426 13.3598 40.9361 13.5081 41.2113 13.6862C41.4742 13.8539 41.7141 14.0549 41.9249 14.2842C42.0219 14.3993 42.1045 14.5258 42.1708 14.6609C42.2358 14.7932 42.288 14.9313 42.3267 15.0735C42.3677 15.2174 42.3878 15.3664 42.3867 15.516C42.3736 15.6762 42.3434 15.8345 42.2967 15.9883C41.97 16.0517 41.634 16.0517 41.3072 15.9883C41.009 15.9202 40.7222 15.8094 40.4557 15.6595C40.3298 15.5817 40.2038 15.504 40.0839 15.4143L39.916 15.2768L39.7421 15.1333C39.5253 14.9515 39.3247 14.7514 39.1424 14.5353C38.9624 14.3465 38.7941 14.1468 38.6387 13.9374L38.5307 13.7819L38.4288 13.6444C38.3568 13.5487 38.2968 13.459 38.2429 13.3813C38.1889 13.3036 38.045 13.0345 37.991 12.9328Z" fill="var(--fill-0, #B18151)"/>
<path d="M41.7212 11.127C41.4378 10.9889 41.1927 10.7836 41.0075 10.529C40.822 10.2865 40.6855 10.0103 40.6058 9.71579C40.2795 8.45974 40.3658 7.12513 40.4798 5.84706C40.5338 5.35076 40.5878 5.01591 40.5878 5.01591C40.8304 5.20408 41.014 5.42252 41.1935 5.67365C41.3753 5.91114 41.5435 6.15866 41.6972 6.41511C41.8763 6.71382 42.0365 7.02334 42.177 7.34194C42.3195 7.67464 42.4338 8.01866 42.5188 8.37042C42.5899 8.71241 42.6181 9.06191 42.6027 9.41084C42.5943 9.74451 42.5107 10.072 42.3581 10.3691C42.2055 10.6662 41.9878 10.9252 41.7212 11.127Z" fill="var(--fill-0, #B18151)"/>
<path d="M36.684 10.7681C36.4501 10.5947 36.2342 10.4272 36.0423 10.2598C35.8504 10.0924 35.6705 9.93094 35.5326 9.79342C35.3946 9.65591 35.2687 9.5363 35.1907 9.45259L35.0648 9.32105C35.3185 9.27001 35.5747 9.23211 35.8324 9.20743C36.0895 9.18239 36.3478 9.1724 36.606 9.17755C36.9193 9.17533 37.2322 9.19937 37.5415 9.2493C38.1876 9.32413 38.8055 9.55618 39.3406 9.92496C39.5825 10.1069 39.7863 10.3345 39.9403 10.5947C40.076 10.8672 40.14 11.1697 40.1262 11.4737C39.5343 11.7289 38.87 11.7629 38.2551 11.5693C37.9668 11.486 37.6891 11.3696 37.4276 11.2225C37.1686 11.0899 36.92 10.938 36.684 10.7681Z" fill="var(--fill-0, #B18151)"/>
<path d="M38.5988 8.04391C38.246 8.04391 37.6954 8.07621 37.2474 7.76655C37.126 7.67775 37.0098 7.58192 36.8997 7.47951C36.7843 7.37742 36.6761 7.26752 36.5758 7.15064C36.3593 6.91738 36.1589 6.66964 35.9761 6.40918C35.6283 5.89498 35.3284 5.36278 35.1126 4.96216C35.0046 4.76483 34.9292 4.59152 34.8693 4.47195L34.8287 4.3698L34.8067 4.29844L35.0862 4.31803C35.2721 4.34253 35.3808 4.35887 35.5624 4.40608C36.1353 4.55108 36.6874 4.76809 37.2055 5.05186C37.804 5.36067 38.3216 5.80506 38.7167 6.3494C38.9 6.60803 39.0229 6.90426 39.0765 7.21644C39.1362 7.47819 39.1345 7.7409 39.0765 8.0117" fill="var(--fill-0, #B18151)"/>
</g>
<g id="Group 4">
<path id="Vector_3" fill-rule="evenodd" clip-rule="evenodd" d="M16.585 26.956C18.2408 23.8543 19.9202 20.7525 21.576 17.6508L23.4684 21.1787L21.4104 25.0144C21.6943 25.1091 21.9545 25.2512 22.2147 25.3696C22.0018 25.3696 21.7889 25.3459 21.576 25.3459C21.3631 25.3459 21.2449 25.3459 21.2449 25.3459C19.5181 25.417 17.9096 25.9852 16.585 26.956Z" fill="var(--fill-0, #B18151)"/>
<path id="Vector_4" fill-rule="evenodd" clip-rule="evenodd" d="M29.1928 29.9869H32.9775L23.9652 13.1998L22.0729 16.7277L27.537 26.9089C27.0876 26.7905 26.6145 26.6958 26.1414 26.6484C27.466 27.4771 28.4359 28.5899 29.1692 29.9632" fill="var(--fill-0, #B18151)"/>
<path id="Vector_5" fill-rule="evenodd" clip-rule="evenodd" d="M21.5996 26.4595C24.3435 26.4595 26.7799 27.8565 28.2228 29.9637C27.111 28.9693 25.6208 28.3537 24.0123 28.3537C22.4038 28.3537 20.9136 28.9693 19.8018 29.9637H15C16.4429 27.8328 18.8557 26.4595 21.6232 26.4595" fill="var(--fill-0, #B18151)"/>
</g>
</g>
</svg>
