<svg preserveAspectRatio="none" width="100%" height="100%" overflow="visible" style="display: block;" viewBox="0 0 50 50" fill="none" xmlns="http://www.w3.org/2000/svg">
<g id="Abstract 206">
<path id="Vector" d="M25 16.5734C25 21.2242 21.2242 25 16.5734 25C11.9226 25 8.14681 21.2242 8.14681 16.5734V8.14681L16.5734 8.14681C21.2242 8.14681 25 11.9226 25 16.5734Z" fill="var(--fill-0, #B18151)"/>
<path id="Vector_2" d="M33.4266 25C28.7758 25 25 21.2242 25 16.5734C25 11.9226 28.7758 8.14681 33.4266 8.14681H41.8532V16.5734C41.8532 21.2242 38.0774 25 33.4266 25Z" fill="var(--fill-0, #B18151)"/>
<path id="Vector_3" d="M25 33.4266C25 28.7758 28.7758 25 33.4266 25C38.0774 25 41.8532 28.7758 41.8532 33.4266V41.8532H33.4266C28.7758 41.8532 25 38.0774 25 33.4266Z" fill="var(--fill-0, #B18151)"/>
<path id="Vector_4" d="M16.5734 25C21.2242 25 25 28.7758 25 33.4266C25 38.0774 21.2242 41.8532 16.5734 41.8532H8.14681V33.4266C8.14681 28.7758 11.9226 25 16.5734 25Z" fill="var(--fill-0, #B18151)"/>
</g>
</svg>
