<svg width="20" height="19" viewBox="0 0 20 19" fill="none" xmlns="http://www.w3.org/2000/svg">
<path fill-rule="evenodd" clip-rule="evenodd" d="M1.76221 15.3034C3.60433 11.8527 5.47277 8.40191 7.31489 4.95117L9.42018 8.87606L7.13068 13.1434C7.44647 13.2487 7.73595 13.4068 8.02543 13.5385C7.78859 13.5385 7.55174 13.5122 7.31489 13.5122C7.07805 13.5122 6.94647 13.5122 6.94647 13.5122C5.0254 13.5912 3.23591 14.2234 1.76221 15.3034Z" fill="white"/>
<path fill-rule="evenodd" clip-rule="evenodd" d="M15.79 18.6761H20.0006L9.97418 0L7.8689 3.92488L13.9479 15.2517C13.4479 15.12 12.9216 15.0147 12.3953 14.962C13.869 15.8839 14.9479 17.122 15.7637 18.6498" fill="white"/>
<path fill-rule="evenodd" clip-rule="evenodd" d="M7.34218 14.752C10.3948 14.752 13.1054 16.3061 14.7107 18.6505C13.4738 17.5441 11.8159 16.8593 10.0264 16.8593C8.23692 16.8593 6.57901 17.5441 5.34216 18.6505H0C1.60528 16.2798 4.28952 14.752 7.36849 14.752" fill="white"/>
</svg>
