<svg width="15" height="14" viewBox="0 0 15 14" fill="none" xmlns="http://www.w3.org/2000/svg">
<path fill-rule="evenodd" clip-rule="evenodd" d="M1.32031 11.4633C2.70015 8.87851 4.09969 6.29375 5.47953 3.70898L7.05649 6.64891L5.34155 9.84533C5.57809 9.92425 5.79492 10.0426 6.01176 10.1413C5.83435 10.1413 5.65694 10.1216 5.47953 10.1216C5.30212 10.1216 5.20356 10.1216 5.20356 10.1216C3.76459 10.1808 2.42418 10.6543 1.32031 11.4633Z" fill="#D2B79B"/>
<path fill-rule="evenodd" clip-rule="evenodd" d="M11.8278 13.9893H14.9817L7.47149 0L5.89453 2.93992L10.448 11.4242C10.0735 11.3256 9.67922 11.2467 9.28499 11.2072C10.3889 11.8978 11.197 12.8251 11.8081 13.9695" fill="#D2B79B"/>
<path fill-rule="evenodd" clip-rule="evenodd" d="M5.49963 11.0498C7.78622 11.0498 9.81655 12.2139 11.019 13.97C10.0925 13.1413 8.85066 12.6283 7.51025 12.6283C6.16984 12.6283 4.92798 13.1413 4.00152 13.97H0C1.20243 12.1942 3.21305 11.0498 5.51934 11.0498" fill="#D2B79B"/>
</svg>
