<svg width="20" height="20" viewBox="0 0 20 20" fill="none" xmlns="http://www.w3.org/2000/svg">
<path d="M4 10C4 11.1046 3.10457 12 2 12C0.895431 12 3.49691e-07 11.1046 3.49691e-07 10C3.49691e-07 8.89543 0.895431 8 2 8C3.10457 8 4 8.89543 4 10Z" fill="white"/>
<path d="M12 10C12 11.1046 11.1046 12 10 12C8.89544 12 8 11.1046 8 10C8 8.89543 8.89544 8 10 8C11.1046 8 12 8.89543 12 10Z" fill="white"/>
<path d="M20 10C20 11.1046 19.1046 12 18 12C16.8954 12 16 11.1046 16 10C16 8.89543 16.8954 8 18 8C19.1046 8 20 8.89543 20 10Z" fill="white"/>
<path d="M4 2C4 3.10457 3.10457 4 2 4C0.895431 4 6.99382e-07 3.10457 6.99382e-07 2C6.99382e-07 0.89543 0.895431 0 2 0C3.10457 0 4 0.89543 4 2Z" fill="white"/>
<path d="M12 2C12 3.10457 11.1046 4 10 4C8.89544 4 8.00001 3.10457 8.00001 2C8.00001 0.89543 8.89544 0 10 0C11.1046 0 12 0.89543 12 2Z" fill="white"/>
<path d="M20 2C20 3.10457 19.1046 4 18 4C16.8954 4 16 3.10457 16 2C16 0.89543 16.8954 0 18 0C19.1046 0 20 0.89543 20 2Z" fill="white"/>
<path d="M4 18C4 19.1046 3.10457 20 2 20C0.89543 20 0 19.1046 0 18C0 16.8954 0.89543 16 2 16C3.10457 16 4 16.8954 4 18Z" fill="white"/>
<path d="M12 18C12 19.1046 11.1046 20 10 20C8.89544 20 8.00001 19.1046 8.00001 18C8.00001 16.8954 8.89544 16 10 16C11.1046 16 12 16.8954 12 18Z" fill="white"/>
<path d="M20 18C20 19.1046 19.1046 20 18 20C16.8954 20 16 19.1046 16 18C16 16.8954 16.8954 16 18 16C19.1046 16 20 16.8954 20 18Z" fill="white"/>
</svg>
