<svg width="257" height="24" viewBox="0 0 257 24" fill="none" xmlns="http://www.w3.org/2000/svg">
<path d="M150.396 23.4014C150.465 23.4014 150.558 23.4251 150.604 23.4941C150.672 23.5631 150.695 23.6323 150.695 23.7012C150.695 23.7702 150.672 23.8623 150.604 23.9082C150.535 23.9772 150.465 24 150.396 24C150.305 24 150.235 23.9771 150.189 23.9082C150.121 23.8393 150.098 23.7701 150.098 23.7012C150.098 23.6322 150.121 23.5402 150.189 23.4941C150.258 23.4251 150.328 23.4014 150.396 23.4014ZM163.638 23.4014C163.707 23.4014 163.799 23.4243 163.845 23.4932C163.914 23.5621 163.936 23.6313 163.937 23.7002C163.937 23.7691 163.913 23.8611 163.845 23.9072C163.776 23.9762 163.707 24 163.638 24C163.546 24 163.477 23.9763 163.431 23.9072C163.362 23.8383 163.339 23.7691 163.339 23.7002C163.339 23.6312 163.362 23.5391 163.431 23.4932C163.5 23.4242 163.569 23.4014 163.638 23.4014ZM178.166 19.3975C178.442 19.3975 178.58 19.4212 178.741 19.4902C178.902 19.5591 179.04 19.6279 179.154 19.7197C179.269 19.8118 179.338 19.9045 179.407 20.0195C179.476 20.1115 179.522 20.2264 179.568 20.3184C179.591 20.4102 179.615 20.479 179.638 20.5479V20.6406H179.178C179.178 20.6406 179.178 20.6173 179.178 20.5713C179.178 20.5253 179.131 20.4566 179.108 20.3877C179.062 20.3187 179.016 20.2263 178.947 20.1572C178.878 20.0883 178.763 20.0186 178.648 19.9727C178.534 19.9268 178.373 19.9043 178.189 19.9043C178.006 19.9043 177.822 19.9505 177.684 20.0195C177.546 20.0886 177.407 20.2033 177.315 20.3184C177.224 20.4564 177.155 20.5949 177.086 20.7559C177.04 20.9168 177.017 21.0778 177.017 21.2617C177.017 21.4457 177.04 21.6066 177.086 21.7676C177.132 21.9286 177.201 22.067 177.315 22.2051C177.407 22.3431 177.546 22.4349 177.684 22.5039C177.822 22.5729 178.006 22.6191 178.189 22.6191C178.373 22.6191 178.511 22.5957 178.648 22.5498C178.763 22.5038 178.878 22.4351 178.947 22.3662C179.016 22.2972 179.085 22.2048 179.108 22.1357C179.154 22.0668 179.178 21.9982 179.178 21.9521V21.8828H179.638C179.638 21.8828 179.638 21.9058 179.638 21.9746C179.638 22.0436 179.614 22.113 179.568 22.2051C179.545 22.2971 179.476 22.3889 179.407 22.5039C179.338 22.5959 179.246 22.7117 179.154 22.8037C179.04 22.8955 178.902 22.9643 178.741 23.0332C178.58 23.1022 178.396 23.125 178.166 23.125L177.968 22.9785C177.777 22.9602 177.608 22.9125 177.453 22.8262C177.246 22.7342 177.086 22.596 176.948 22.4121C176.81 22.251 176.717 22.044 176.648 21.8369C176.579 21.6298 176.557 21.3994 176.557 21.1924C176.557 20.9853 176.579 20.7549 176.648 20.5479C176.717 20.3408 176.81 20.1337 176.948 19.9727C177.086 19.8118 177.247 19.6735 177.453 19.5586C177.66 19.4666 177.89 19.3975 178.166 19.3975ZM140.144 19.8809H138.396V20.9854H139.914V21.3994H138.396V22.5732H140.167V22.9873H137.937V19.4668H140.144V19.8809ZM154.028 19.3975C154.304 19.3975 154.535 19.4435 154.765 19.5586C154.971 19.6506 155.155 19.7888 155.293 19.9727C155.431 20.1337 155.546 20.3409 155.615 20.5479C155.684 20.7549 155.729 20.9853 155.729 21.1924C155.729 21.3995 155.684 21.6298 155.615 21.8369C155.546 22.044 155.431 22.251 155.293 22.4121C155.155 22.5731 154.971 22.7112 154.765 22.8262C154.558 22.9182 154.304 22.9873 154.028 22.9873C153.753 22.9873 153.523 22.9412 153.293 22.8262C153.086 22.7341 152.903 22.5961 152.765 22.4121C152.627 22.251 152.511 22.044 152.442 21.8369C152.373 21.6298 152.327 21.3995 152.327 21.1924C152.327 20.9853 152.373 20.7549 152.442 20.5479C152.511 20.3409 152.627 20.1566 152.765 19.9727C152.903 19.8117 153.086 19.6736 153.293 19.5586C153.5 19.4666 153.753 19.3975 154.028 19.3975ZM164.695 19.8809H162.948V20.9854H164.465V21.3994H162.948V22.5732H164.718V22.9873H162.488V19.4668H164.695V19.8809ZM131.845 19.4668V22.9414H77.3623V19.4668H131.845ZM133.638 21.0312L135.132 19.4668H135.729L134.098 21.124L135.799 22.9414H135.178L133.638 21.2852V22.9414H133.178V19.4668H133.638V21.0312ZM136.971 22.9414H136.512V19.4668H136.971V22.9414ZM143.225 22.1133V19.4668H143.684V22.9414H143.271L141.454 20.2949V22.9414H140.994V19.4668H141.408L143.225 22.1133ZM148.281 19.8584H147.201V22.9414H146.741V19.8584H145.661V19.4668H148.281V19.8584ZM151.891 22.9414H151.408L151.109 22.1133H149.638L149.339 22.9414H148.879L150.098 19.4668H150.672L151.891 22.9414ZM158.189 21.0312L159.684 19.4668H160.281L158.672 21.124L160.351 22.9414H159.753L158.189 21.2852V22.9414H157.729V19.4668H158.189V21.0312ZM161.546 22.9414H161.086V19.4668H161.546V22.9414ZM168.028 19.8584H166.948V22.9414H166.488V19.8584H165.408V19.4668H168.028V19.8584ZM172.465 19.8584H171.385V22.9414H170.925V19.8584H169.845V19.4668H172.465V19.8584ZM176.074 22.9414H175.592L175.293 22.1133H173.821L173.522 22.9414H173.062L174.281 19.4668H174.856L176.074 22.9414ZM154.028 19.835C153.822 19.835 153.661 19.8812 153.5 19.9502C153.339 20.0192 153.224 20.134 153.132 20.249C153.04 20.3871 152.948 20.5255 152.902 20.6865C152.856 20.8475 152.833 21.0084 152.833 21.1924C152.833 21.3765 152.856 21.5381 152.902 21.6992C152.948 21.86 153.04 21.9979 153.132 22.1357C153.224 22.2738 153.362 22.3665 153.5 22.4355C153.661 22.5045 153.822 22.5497 154.028 22.5498C154.235 22.5498 154.397 22.5046 154.558 22.4355C154.719 22.3665 154.833 22.2508 154.925 22.1357C155.017 21.9978 155.109 21.8601 155.155 21.6992C155.201 21.5381 155.225 21.3765 155.225 21.1924C155.225 21.0085 155.201 20.8475 155.155 20.6865C155.109 20.5254 155.017 20.3871 154.925 20.249C154.833 20.1112 154.695 20.0192 154.558 19.9502C154.397 19.8812 154.235 19.835 154.028 19.835ZM149.799 21.6992H150.994L150.396 19.9961L149.799 21.6992ZM173.96 21.6992H175.155L174.558 19.9961L173.96 21.6992ZM139.868 19.0986H139.454L139.109 18.6611L138.765 19.0986H138.328L138.902 18.4082H139.293L139.868 19.0986ZM164.419 19.0986H164.006L163.66 18.6611L163.315 19.0986H162.879L163.454 18.4082H163.845L164.419 19.0986ZM174.764 19.0986H174.373L174.787 18.2471H175.247L174.764 19.0986ZM139.982 18.5H139.592L140.006 17.6484H140.466L139.982 18.5ZM94.8564 16.3145L91.1553 16.291C90.4427 14.9566 89.5001 13.8756 88.2129 13.0703C88.6726 13.1163 89.1326 13.2082 89.5693 13.3232L84.2588 3.42871L86.0986 0L94.8564 16.3145ZM106.581 16.3145H104.902V8.74414L101.408 12.2422L96.2363 7.06445V4.6709L101.408 9.84863L106.581 4.6709V16.3145ZM168.166 16.3145H168.144C165.063 13.2311 161.983 10.1478 158.902 7.06445V4.6709L166.465 12.2422V4.6709H168.166V16.3145ZM176.304 4.6709C178.097 4.6709 179.546 6.07492 179.638 7.84668H177.937C177.845 7.01835 177.154 6.37402 176.304 6.37402H172.855C171.959 6.37425 171.224 7.11057 171.224 8.00781C171.224 8.90508 171.959 9.64137 172.855 9.6416H176.304C178.143 9.6416 179.638 11.1377 179.638 12.9785C179.637 14.8192 178.143 16.3145 176.304 16.3145H172.855C171.063 16.3142 169.615 14.9111 169.522 13.1396H171.224C171.316 13.9677 172.005 14.6121 172.855 14.6123H176.304C177.2 14.6123 177.936 13.8758 177.937 12.9785C177.937 12.0811 177.2 11.3447 176.304 11.3447H172.855C171.017 11.3445 169.522 9.84851 169.522 8.00781C169.522 6.16714 171.017 4.67113 172.855 4.6709H176.304ZM84.0488 12.8906C86.6132 12.9724 88.878 14.3082 90.2363 16.292C89.156 15.3257 87.7075 14.7277 86.1445 14.7275C84.5813 14.7275 83.1322 15.3256 82.0518 16.292H77.3857C78.788 14.221 81.1326 12.8867 83.8223 12.8867L84.0488 12.8906ZM97.9375 9.94043V16.292H96.2363V8.23828L97.9375 9.94043ZM160.604 9.94043V16.292H158.902V8.23828L160.604 9.94043ZM113.776 4.64746C116.995 4.64762 119.592 7.24836 119.592 10.4697C119.592 13.691 116.994 16.2909 113.776 16.291C110.558 16.291 107.96 13.6911 107.96 10.4697C107.96 7.24826 110.558 4.64746 113.776 4.64746ZM130.581 4.64844C130.719 6.78826 129.707 8.81299 127.891 9.94043L131.776 16.291H129.799L126.328 10.6309C125.822 10.7689 125.316 10.8379 124.765 10.8379H122.673V16.2686H120.972V4.625H130.581V4.64844ZM138.972 4.64746C141.592 4.64757 143.799 6.37413 144.534 8.74414H142.719C142.075 7.31756 140.627 6.32725 138.972 6.32715C137.317 6.32715 134.834 8.16868 134.834 10.4697C134.834 12.7707 136.673 14.6113 138.972 14.6113C141.27 14.6113 142.075 13.6219 142.719 12.1953H144.534C143.799 14.5652 141.592 16.2909 138.972 16.291C136.351 16.291 133.155 13.6911 133.155 10.4697C133.155 7.24826 135.753 4.64746 138.972 4.64746ZM151.729 4.64746C154.948 4.64746 157.546 7.24826 157.546 10.4697C157.546 13.6911 154.948 16.291 151.729 16.291C148.511 16.2909 145.914 13.691 145.914 10.4697C145.914 7.24834 148.511 4.6476 151.729 4.64746ZM113.776 6.35059C111.478 6.35059 109.638 8.19127 109.638 10.4922C109.638 12.7932 111.478 14.6348 113.776 14.6348C116.075 14.6346 117.914 12.7931 117.914 10.4922C117.914 8.19137 116.052 6.35075 113.776 6.35059ZM151.729 6.35059C149.431 6.35072 147.592 8.19135 147.592 10.4922C147.592 12.7932 149.431 14.6346 151.729 14.6348C154.028 14.6348 155.867 12.7932 155.867 10.4922C155.867 8.19127 154.005 6.35059 151.729 6.35059ZM85.6152 7.75391L83.6152 11.4824C83.8909 11.5744 84.1438 11.7121 84.3965 11.8271C84.1898 11.8271 83.9831 11.8047 83.7764 11.8047H83.4541C81.7761 11.8738 80.2131 12.4258 78.9258 13.3691C80.5349 10.3548 82.1672 7.34048 83.7764 4.32617L85.6152 7.75391ZM122.649 9.18066H124.765C126.581 9.18066 128.144 8.00734 128.673 6.35059H122.649V9.18066Z" fill="white"/>
</svg>
